<svg xmlns="http://www.w3.org/2000/svg" xmlns:xlink="http://www.w3.org/1999/xlink" width="32" height="32" class="icon" p-id="4189" t="1583304035375" version="1.1" viewBox="0 0 1024 1024"><defs><style type="text/css"/></defs><path fill="#e6e6e6" d="M715.775642 0H0v509.337345h102.399949V101.887949h511.999744V407.551796h307.199846v101.887949h102.399949V327.884636L715.775642 0zM563.199718 769.382015a51.046374 51.046374 0 0 0-51.199974-50.943974H460.79977v101.887949h51.199974c28.262386 0 51.199974-22.835189 51.199974-50.943975z m37.068782 120.67834L665.599667 1018.674691h-102.399949l-51.199974-101.887949H460.79977v101.887949H358.399821v-407.449397h153.599923c84.838358 0 153.599923 71.065564 153.599923 155.443123 0 51.660774-25.907187 95.743952-65.331167 123.391938zM819.19959 611.225294h-102.399948v407.449397h307.199846v-101.887949h-204.799898v-305.561448z m-614.399692 0h102.399948v259.99347A153.241523 153.241523 0 0 1 153.599923 1023.999488c-84.838358 0-153.599923-68.403166-153.599923-152.780724v-259.99347h102.399949v259.99347c0 28.159986 22.937589 50.943975 51.199974 50.943975s51.199974-22.835189 51.199975-50.943975v-259.99347z" p-id="4190"/></svg>